<svg version="1.1" id="ZD_1_" xmlns="http://www.w3.org/2000/svg" xmlns:xlink="http://www.w3.org/1999/xlink" x="0px" y="0px" width="275.5px" height="106.5px">
<style type="text/css">
	.st0{clip-path:url(#ZDclip_1_);}
	.st1{fill:none;stroke:#000000;stroke-width:2;stroke-miterlimit:10;}
	<defs>
		<style>
			#Zpath{
				fill: black;
				transform: translateX(145%);
				animation: comeIn 700ms ease-in-out forwards;
				animation-delay: 2300ms;
			}
			#Z{
				stroke-dasharray: 950;
				stroke-dashoffset: 950;
				animation: line1 3s ease-in-out forwards;
			}
			#D{
				stroke-dasharray: 600;
				stroke-dashoffset: 600;
				animation: line2 3s ease-in-out forwards;
			}
			@keyframes line1{
				from{
					stroke-dashoffset: 950;
				}
				to{
					stroke-dashoffset: 0;
				}
			}
			@keyframes line2{
				from{
					stroke-dashoffset: 600;
				}
				to{
					stroke-dashoffset: 0;
				}
			}
			@keyframes comeIn{
				from{
					transform: translateX(145%);
				}
				to{
					transform: translateX(0%);
				}
			}
		</style>
	</defs>
</style>
<g>
	<defs>
		<path id="ZDclip" d="M162.914,36.897v33.719V89.17v5.372c0,6.579-3.289,9.871-9.871,9.871H18.586
			c-5.081,0-8.94-0.657-11.574-1.976c-2.635-1.317-3.951-3.903-3.951-7.763c0-1.6,0.233-2.894,0.705-3.882
			c0.47-0.988,1.222-1.905,2.259-2.752L98.327,17.33H9.553c-4.327,0-6.492-2.164-6.492-6.492V8.579c0-4.327,2.163-6.492,6.491-6.492
			h114.343l-0.046,0.03c0.603,0.023,1.205,0.057,1.808,0.111c1.034,0.095,1.976,0.353,2.823,0.776
			c0.847,0.424,1.528,1.013,2.046,1.765c0.517,0.754,0.776,1.789,0.776,3.105c0,1.411-0.353,2.565-1.059,3.458
			c-0.705,0.895-1.858,2.046-3.458,3.458L28.748,89.17h115.396V36.898c0-4.327,2.163-6.492,6.491-6.492h5.787
			C160.748,30.406,162.914,32.569,162.914,36.897z M230.662,2.087h-80.027c-4.328,0-6.491,2.166-6.491,6.492v2.258
			c0,4.328,2.165,6.492,6.491,6.492h79.463c8.277,0,14.324,1.059,18.137,3.176c3.811,2.117,5.715,4.729,5.715,7.833v49.822
			c0,3.013-1.904,5.6-5.715,7.763c-3.813,2.166-9.859,3.246-18.137,3.246h-47.615c-4.328,0-6.492,2.166-6.492,6.492v2.26
			c0,4.328,2.166,6.491,6.492,6.491h48.18c27.85,0,41.777-8.751,41.777-26.252V28.339C272.439,10.837,258.512,2.087,230.662,2.087z"
			/>
	</defs>
	<clipPath id="ZDclip_1_">
		<use xlink:href="#ZDclip"  style="overflow:hidden;"/>
	</clipPath>
	<g class="st0">
		<polygon id="Zpath" points="274.75,106.463 -143.25,106.463 -4.061,0.038 274.75,0.038 	"/>
	</g>
</g>
<g id="ZD">
	<path id="D" class="st1" d="M230.662,2.087h-80.027c-4.328,0-6.491,2.166-6.491,6.492v2.258c0,4.328,2.165,6.492,6.491,6.492
		h79.463c8.277,0,14.324,1.059,18.137,3.176c3.811,2.117,5.715,4.729,5.715,7.833v49.822c0,3.013-1.904,5.6-5.715,7.763
		c-3.813,2.166-9.859,3.246-18.137,3.246h-47.615c-4.328,0-6.492,2.166-6.492,6.492v2.26c0,4.328,2.166,6.491,6.492,6.491h48.18
		c27.85,0,41.777-8.751,41.777-26.252V28.339C272.439,10.837,258.512,2.087,230.662,2.087z"/>
	<path id="Z" class="st1" d="M156.422,30.406h-5.787c-4.328,0-6.491,2.166-6.491,6.492V89.17H28.748l98.037-74.381
		c1.6-1.411,2.753-2.563,3.458-3.458c0.706-0.893,1.059-2.047,1.059-3.458c0-1.316-0.26-2.351-0.776-3.105
		c-0.518-0.752-1.199-1.341-2.046-1.765c-0.848-0.423-1.789-0.681-2.823-0.776c-0.603-0.054-1.205-0.088-1.808-0.111l0.046-0.03
		H9.552c-4.328,0-6.491,2.166-6.491,6.492v2.258c0,4.328,2.165,6.492,6.492,6.492h88.774L6.024,88.041
		c-1.037,0.847-1.789,1.764-2.259,2.752c-0.472,0.988-0.705,2.282-0.705,3.882c0,3.859,1.316,6.445,3.951,7.763
		c2.634,1.318,6.493,1.976,11.574,1.976h134.457c6.582,0,9.871-3.292,9.871-9.871V89.17V70.616V36.897
		C162.914,32.569,160.748,30.406,156.422,30.406z"/>
</g>
</svg>
