<?xml version="1.0" encoding="utf-8"?>
<!-- Generator: Adobe Illustrator 16.0.0, SVG Export Plug-In . SVG Version: 6.00 Build 0)  -->
<!DOCTYPE svg PUBLIC "-//W3C//DTD SVG 1.1//EN" "http://www.w3.org/Graphics/SVG/1.1/DTD/svg11.dtd">
<svg version="1.1" id="Layer_1" xmlns="http://www.w3.org/2000/svg" xmlns:xlink="http://www.w3.org/1999/xlink" x="0px" y="0px"
	 width="269.379px" height="102.326px" viewBox="0 0 269.379 102.326" enable-background="new 0 0 269.379 102.326"
	 xml:space="preserve">
<g>
	<path d="M227.602,0h-80.027c-4.328,0-6.491,2.166-6.491,6.492V8.75c0,4.328,2.165,6.492,6.491,6.492h79.463
		c8.277,0,14.324,1.059,18.137,3.176c3.811,2.117,5.715,4.729,5.715,7.833v49.822c0,3.013-1.904,5.6-5.715,7.763
		c-3.813,2.166-9.859,3.246-18.137,3.246h-47.615c-4.328,0-6.492,2.166-6.492,6.492v2.26c0,4.328,2.166,6.491,6.492,6.491h48.18
		c27.85,0,41.777-8.751,41.777-26.252V26.252C269.379,8.75,255.452,0,227.602,0z"/>
	<path d="M153.362,28.319h-5.787c-4.328,0-6.491,2.166-6.491,6.492v52.272H25.688l98.038-74.381
		c1.599-1.411,2.752-2.563,3.458-3.458c0.706-0.893,1.059-2.047,1.059-3.458c0-1.316-0.26-2.351-0.776-3.105
		c-0.518-0.752-1.2-1.341-2.046-1.765c-0.847-0.423-1.789-0.681-2.823-0.776c-0.603-0.054-1.206-0.088-1.808-0.111L120.834,0H6.492
		C2.164,0,0,2.166,0,6.492V8.75c0,4.328,2.165,6.492,6.492,6.492h88.774L2.964,85.954c-1.037,0.847-1.789,1.764-2.258,2.752
		C0.234,89.694,0,90.988,0,92.588c0,3.859,1.316,6.445,3.952,7.763c2.633,1.318,6.493,1.976,11.574,1.976h134.458
		c6.582,0,9.871-3.292,9.871-9.871v-5.372V68.529V34.81C159.854,30.482,157.688,28.319,153.362,28.319z"/>
</g>
<g>
</g>
<g>
</g>
<g>
</g>
<g>
</g>
<g>
</g>
<g>
</g>
</svg>
